<svg xmlns="http://www.w3.org/2000/svg" viewBox="0 0 900 600">
  <rect width="900" height="600" fill="#de2910"/>
  <path fill="#ffde00" d="m150 70 29 89 94 1-76 54 28 90-75-55-76 55 29-90-76-54 94-1z"/>
  <g fill="#ffde00">
    <path d="m300 65 10 30 32 1-26 18 10 31-26-19-26 19 10-31-26-18 32-1z" transform="rotate(23 300 65)"/>
    <path d="m360 125 10 30 32 1-26 18 10 31-26-19-26 19 10-31-26-18 32-1z" transform="rotate(45 360 125)"/>
    <path d="m360 215 10 30 32 1-26 18 10 31-26-19-26 19 10-31-26-18 32-1z" transform="rotate(70 360 215)"/>
    <path d="m300 275 10 30 32 1-26 18 10 31-26-19-26 19 10-31-26-18 32-1z" transform="rotate(20 300 275)"/>
  </g>
</svg>
